<?xml version="1.0" standalone="no"?>
<!DOCTYPE svg PUBLIC "-//W3C//DTD SVG 20010904//EN"
 "http://www.w3.org/TR/2001/REC-SVG-20010904/DTD/svg10.dtd">
<svg version="1.0" xmlns="http://www.w3.org/2000/svg"
 width="3481.000000pt" height="1211.000000pt" viewBox="0 0 3481.000000 1211.000000"
 preserveAspectRatio="xMidYMid meet">

<g transform="translate(0.000000,1211.000000) scale(0.100000,-0.100000)"
fill="#008080" stroke="none">
<path d="M5585 12081 c-11 -11 -1269 -613 -2795 -1339 l-2775 -1320 -3 -3209
-2 -3210 1682 -893 c926 -491 2187 -1161 2803 -1488 616 -327 1122 -599 1123
-603 6 -16 30 -9 99 29 37 21 1304 695 2816 1497 l2747 1459 0 3200 0 3201
-97 47 c-1889 894 -5494 2615 -5509 2629 -26 24 -64 24 -89 0z m2633 -1595
c1415 -673 2575 -1225 2577 -1227 7 -8 -5079 -2594 -5101 -2594 -13 0 -1172
594 -2574 1320 -1919 993 -2546 1322 -2535 1330 38 25 5023 2393 5040 2394 11
1 1178 -550 2593 -1223z m-5273 -2819 l2540 -1316 3 -2916 c1 -2267 -1 -2916
-10 -2913 -7 3 -1156 612 -2555 1354 l-2542 1349 -1 2884 c0 2302 3 2882 13
2878 6 -2 1155 -597 2552 -1320z m7953 -4443 c-12 -11 -5025 -2674 -5034
-2674 -2 0 -4 1300 -4 2889 0 2218 3 2892 12 2898 6 4 1142 584 2522 1289
l2511 1281 3 -2836 c2 -2260 -1 -2838 -10 -2847z"/>
<path d="M16965 11426 c-42 -18 -55 -53 -55 -147 0 -108 11 -118 130 -119 132
0 307 -19 390 -41 185 -50 286 -155 343 -358 l22 -76 5 -1910 c6 -2071 3
-1954 59 -2189 69 -289 208 -534 431 -757 317 -318 723 -491 1352 -575 160
-21 631 -30 810 -15 642 55 1131 263 1479 629 361 379 544 873 579 1557 6 116
10 867 10 1791 0 1105 3 1608 11 1649 21 112 72 179 174 226 85 40 210 59 435
66 195 6 195 6 217 32 19 22 22 38 23 109 0 57 -5 93 -16 114 l-16 30 -136 -6
c-75 -4 -285 -14 -467 -22 -417 -21 -1032 -11 -1311 21 -47 6 -51 4 -62 -20
-18 -40 -15 -178 5 -220 9 -19 21 -35 27 -35 35 0 342 -32 396 -42 209 -35
274 -117 300 -377 14 -144 14 -3007 -1 -3195 -85 -1126 -505 -1653 -1426
-1790 -339 -51 -770 -43 -1033 18 -166 39 -335 111 -464 199 -100 67 -242 212
-312 318 -172 258 -264 557 -309 1009 -31 307 -36 665 -32 2025 3 1311 4 1342
24 1431 27 118 65 197 123 255 102 102 228 136 530 146 146 4 201 10 218 21
21 13 22 21 22 127 0 87 -3 115 -15 125 -16 13 -4 14 -665 -16 -400 -18 -859
-15 -1370 10 -370 19 -387 19 -425 2z"/>
<path d="M29910 11430 c-240 -15 -260 -26 -260 -137 0 -107 2 -109 167 -117
451 -23 648 -108 750 -323 67 -140 64 -6 60 -2449 -3 -2344 -2 -2279 -47
-2469 -36 -150 -122 -259 -253 -320 -105 -49 -210 -67 -610 -101 -74 -6 -79
-8 -95 -38 -24 -44 -23 -169 2 -215 l18 -34 327 7 c179 3 448 11 596 18 390
16 1148 15 1855 -2 338 -8 920 -15 1292 -15 666 0 677 0 704 20 51 39 81 124
210 596 69 255 130 469 134 474 5 6 17 46 29 89 14 58 17 85 10 99 -16 30 -77
49 -169 54 l-85 5 -72 -149 c-160 -331 -352 -621 -471 -708 -99 -73 -247 -114
-487 -137 -201 -18 -1328 -18 -1480 1 -352 43 -548 184 -601 429 -11 56 -14
265 -14 1218 l0 1151 21 19 c30 27 148 28 864 10 599 -16 700 -23 759 -53 123
-62 152 -135 210 -530 27 -182 44 -229 97 -255 67 -35 168 -13 197 42 15 29
11 168 -13 415 -29 305 -29 489 -1 907 32 476 32 482 5 509 -18 18 -30 21 -94
17 -90 -4 -106 -17 -136 -107 -37 -111 -99 -263 -132 -320 -68 -120 -190 -211
-337 -250 -119 -32 -220 -39 -817 -57 l-563 -18 -27 21 -28 20 -3 919 c-2 786
0 934 13 1026 41 283 144 400 389 443 130 22 1472 22 1635 0 311 -44 510 -183
643 -450 61 -121 77 -181 92 -338 10 -96 20 -157 30 -172 18 -27 98 -55 157
-55 59 0 86 15 94 50 10 48 -84 1178 -102 1217 -11 24 -26 36 -52 44 -25 7
-364 9 -1141 6 -990 -4 -1138 -6 -1425 -25 -395 -27 -526 -27 -1025 -3 -524
26 -683 30 -820 21z"/>
<path d="M23922 11420 c-18 -4 -44 -18 -58 -31 -22 -21 -24 -30 -24 -111 l0
-88 32 -20 c18 -11 59 -21 97 -25 526 -47 685 -84 794 -184 56 -52 83 -113 97
-221 17 -130 8 -4805 -9 -4879 -57 -245 -232 -322 -788 -349 -211 -10 -217
-14 -221 -128 -4 -102 1 -120 40 -140 30 -16 78 -16 573 -8 297 5 781 7 1075
4 1060 -10 1510 -6 1670 13 642 80 1077 244 1417 535 133 114 298 333 373 497
142 306 188 766 109 1080 -95 374 -343 687 -727 916 -277 165 -646 288 -1019
341 -104 15 -153 26 -153 34 0 7 8 15 18 18 9 3 76 21 147 41 681 188 1005
386 1169 713 138 274 136 735 -3 1067 -191 454 -621 733 -1326 860 -185 33
-387 52 -702 66 -216 10 -333 9 -708 -5 -574 -21 -855 -23 -1235 -8 -477 18
-602 21 -638 12z m2915 -314 c263 -56 441 -145 594 -296 193 -191 291 -429
320 -778 49 -590 -224 -997 -806 -1202 -259 -91 -570 -130 -1038 -130 l-208 0
3 1048 c3 978 4 1051 21 1102 52 158 167 240 386 275 63 11 155 13 346 11 233
-4 273 -7 382 -30z m-88 -2711 c779 -99 1267 -461 1416 -1048 64 -255 60 -586
-11 -835 -30 -106 -127 -306 -189 -387 -229 -303 -581 -486 -1055 -546 -124
-16 -458 -16 -584 0 -391 50 -563 195 -612 516 -19 126 -21 2263 -1 2270 19 6
260 35 377 45 147 12 512 4 659 -15z"/>
<path d="M14260 11414 c-14 -2 -65 -9 -115 -15 -304 -37 -672 -153 -961 -303
-622 -324 -1118 -841 -1394 -1456 -136 -302 -213 -572 -256 -905 -24 -179 -24
-607 -1 -794 87 -693 379 -1300 862 -1787 481 -485 1083 -795 1745 -899 143
-23 521 -31 703 -16 172 15 385 50 553 91 246 61 578 187 789 301 l91 48 83
543 c50 329 81 564 79 597 -4 75 -32 96 -128 96 -49 0 -74 -4 -85 -16 -8 -8
-31 -75 -51 -148 -150 -572 -298 -778 -689 -966 -535 -256 -1041 -303 -1519
-139 -771 264 -1375 1027 -1580 1994 -118 555 -70 1248 126 1835 139 418 342
759 613 1030 350 351 745 540 1225 586 383 36 782 -67 1114 -288 118 -79 294
-245 378 -358 67 -89 195 -340 258 -503 23 -59 55 -137 72 -174 30 -66 32 -68
67 -68 52 0 109 18 120 38 5 10 5 45 0 82 -5 36 -31 299 -59 585 -28 286 -53
525 -54 530 -6 18 -170 109 -291 161 -266 114 -535 195 -840 254 -257 50 -367
62 -600 65 -126 2 -241 2 -255 -1z"/>
<path d="M12615 4359 c-177 -27 -319 -126 -398 -277 -48 -91 -67 -175 -67
-297 0 -171 47 -306 140 -409 98 -107 204 -154 366 -163 170 -10 305 35 404
132 l34 35 -34 35 c-19 19 -39 35 -45 35 -6 0 -35 -18 -64 -40 -69 -52 -143
-73 -251 -73 -181 2 -302 87 -371 261 -20 49 -23 75 -23 187 0 111 3 138 22
186 49 122 120 196 232 241 43 17 76 22 150 22 110 1 153 -10 234 -59 32 -19
65 -35 72 -35 18 0 76 79 68 92 -15 23 -133 90 -191 108 -77 24 -197 32 -278
19z"/>
<path d="M29731 4354 c-96 -26 -172 -90 -213 -179 -33 -73 -31 -182 5 -251 43
-85 96 -120 262 -174 176 -58 237 -100 251 -175 8 -46 -11 -122 -42 -163 -41
-53 -96 -76 -189 -76 -90 -1 -124 10 -207 66 -32 21 -66 38 -76 38 -20 0 -42
-21 -62 -59 -11 -21 -8 -27 20 -56 72 -75 223 -122 353 -112 207 16 337 147
341 342 3 160 -71 237 -294 310 -104 34 -195 80 -220 113 -43 54 -37 142 12
198 76 86 218 94 344 18 32 -19 65 -33 73 -32 9 2 27 23 40 47 l24 44 -29 24
c-98 81 -261 113 -393 77z"/>
<path d="M33203 4360 c-140 -28 -241 -141 -251 -281 -6 -90 11 -148 60 -203
53 -61 83 -78 238 -131 197 -67 240 -104 240 -203 0 -66 -13 -99 -58 -145 -87
-90 -243 -88 -380 3 -77 51 -94 51 -127 -2 l-25 -43 37 -33 c124 -109 343
-144 492 -77 74 34 150 110 177 180 14 36 19 75 19 140 0 80 -3 95 -28 137
-45 77 -84 99 -377 205 -60 22 -120 79 -129 123 -22 107 37 186 158 211 68 14
155 -5 228 -50 28 -17 57 -31 65 -31 8 0 26 20 39 44 23 44 23 45 4 66 -27 30
-131 78 -194 90 -62 12 -128 11 -188 0z"/>
<path d="M34030 4355 c-30 -9 -75 -28 -100 -43 -157 -96 -188 -337 -58 -458
44 -42 92 -65 233 -113 192 -66 230 -103 223 -216 -7 -114 -79 -181 -206 -192
-76 -7 -152 15 -228 67 -76 52 -95 51 -128 -2 l-25 -43 32 -28 c92 -82 223
-124 356 -114 209 14 341 150 341 350 0 58 -5 83 -26 125 -42 86 -86 114 -278
182 -189 66 -228 98 -233 188 -3 46 1 65 19 96 62 108 242 122 377 30 52 -35
67 -31 96 25 l25 49 -53 35 c-28 19 -74 42 -102 51 -72 24 -198 29 -265 11z"/>
<path d="M21941 3803 c-123 -307 -225 -564 -228 -570 -4 -10 12 -13 59 -13 36
0 71 6 81 13 9 6 41 75 70 152 l54 140 260 3 260 2 53 -137 c29 -76 60 -146
68 -155 12 -14 31 -18 83 -18 l67 0 -227 568 -227 567 -75 3 -75 3 -223 -558z
m309 382 c0 -7 45 -131 101 -275 55 -144 98 -264 96 -266 -2 -3 -98 -3 -214
-2 l-209 3 83 215 c46 118 93 245 105 282 19 60 38 81 38 43z"/>
<path d="M13300 3785 l0 -565 350 0 350 0 0 60 0 60 -275 0 -275 0 2 198 3
197 218 3 217 2 0 55 0 55 -220 0 -220 0 2 193 3 192 273 3 272 2 0 55 0 55
-350 0 -350 0 0 -565z"/>
<path d="M14230 3785 l0 -565 65 0 66 0 -3 440 c-2 242 -1 440 2 439 3 0 145
-183 315 -406 171 -223 324 -421 341 -440 27 -28 38 -33 78 -33 l46 0 0 565 0
565 -65 0 -66 0 3 -435 c2 -239 0 -434 -3 -433 -4 2 -156 198 -339 436 l-332
432 -54 0 -54 0 0 -565z"/>
<path d="M15310 4290 l0 -60 185 0 185 0 0 -505 0 -505 75 0 75 0 0 505 0 505
185 0 185 0 0 60 0 60 -445 0 -445 0 0 -60z"/>
<path d="M16380 3786 l0 -566 75 0 75 0 0 240 0 240 64 0 c106 0 106 1 271
-228 83 -114 160 -217 172 -229 19 -20 32 -23 98 -23 41 0 75 2 75 5 0 9 -312
430 -343 462 -28 30 -29 33 -11 39 10 3 47 19 81 35 116 55 176 155 175 290
-1 127 -67 222 -188 270 -55 22 -75 24 -301 27 l-243 4 0 -566z m485 419 c46
-23 64 -40 82 -74 42 -80 24 -201 -38 -258 -53 -48 -116 -66 -251 -71 l-128
-5 0 223 0 222 139 -4 c130 -3 142 -5 196 -33z"/>
<path d="M17390 3785 l0 -565 350 0 350 0 0 60 0 60 -275 0 -275 0 2 198 3
197 218 3 217 2 0 55 0 55 -220 0 -220 0 2 193 3 192 273 3 272 2 0 55 0 55
-350 0 -350 0 0 -565z"/>
<path d="M18610 3983 c0 -404 6 -462 57 -555 41 -76 107 -136 193 -177 74 -35
77 -36 200 -36 105 1 134 4 180 23 112 45 193 129 242 250 22 56 23 66 26 460
l3 402 -75 0 -76 0 0 -385 c0 -368 -1 -387 -21 -442 -29 -76 -97 -144 -168
-168 -125 -41 -279 0 -345 93 -64 89 -65 98 -66 520 l0 382 -75 0 -75 0 0
-367z"/>
<path d="M19800 3785 l0 -565 75 0 75 0 0 241 0 241 78 -3 c49 -3 85 -9 96
-18 10 -8 88 -111 173 -228 85 -117 164 -218 174 -224 11 -5 51 -9 89 -7 l71
3 -162 220 c-89 121 -173 232 -187 247 -24 26 -24 28 -6 34 166 57 243 148
252 295 10 166 -68 271 -234 313 -47 12 -114 16 -278 16 l-216 0 0 -565z m465
431 c117 -50 158 -181 93 -299 -45 -82 -140 -117 -314 -117 l-94 0 0 221 0
221 138 -4 c100 -3 148 -9 177 -22z"/>
<path d="M20810 3786 l0 -566 228 0 c252 0 329 11 413 57 99 53 152 148 153
269 0 115 -69 202 -190 241 l-55 17 48 24 c107 54 157 128 157 237 1 125 -58
210 -178 259 -46 19 -75 21 -313 24 l-263 3 0 -565z m515 424 c114 -59 130
-220 32 -307 -51 -45 -91 -54 -254 -60 l-143 -6 0 203 0 202 158 -3 c145 -4
161 -6 207 -29z m32 -498 c65 -34 97 -82 101 -156 6 -102 -48 -179 -147 -206
-20 -5 -107 -10 -193 -10 l-158 0 0 201 0 201 178 -4 c159 -3 181 -6 219 -26z"/>
<path d="M22950 3785 l0 -565 75 0 75 0 0 565 0 565 -75 0 -75 0 0 -565z"/>
<path d="M23410 3785 l0 -565 65 0 66 0 -3 440 c-2 242 -1 440 2 439 3 0 145
-183 315 -406 171 -223 324 -421 341 -439 27 -29 38 -34 78 -34 l46 0 0 565 0
565 -60 0 -60 0 0 -435 c0 -239 -3 -435 -7 -435 -5 1 -158 196 -341 435 l-333
435 -55 0 -54 0 0 -565z"/>
<path d="M24920 3784 l0 -566 273 4 c308 5 350 13 463 87 106 69 167 149 209
275 95 282 -19 597 -258 710 -106 50 -150 56 -432 56 l-255 0 0 -566z m557
432 c114 -36 205 -131 244 -256 25 -78 29 -227 10 -310 -31 -129 -119 -238
-229 -282 -52 -20 -74 -22 -247 -23 l-190 0 -3 435 c-1 239 0 441 3 449 8 20
340 10 412 -13z"/>
<path d="M26120 3785 l0 -565 345 0 345 0 0 60 0 60 -272 2 -273 3 0 195 0
195 223 3 222 2 0 55 0 55 -222 2 -223 3 0 190 0 190 273 3 272 2 0 55 0 55
-345 0 -345 0 0 -565z"/>
<path d="M27350 3785 l0 -565 218 0 c241 0 320 9 397 45 110 52 166 135 173
255 8 135 -47 217 -175 262 -32 11 -59 21 -61 23 -2 2 16 12 40 23 60 26 113
74 137 126 24 48 28 145 9 207 -25 84 -114 154 -226 178 -30 6 -151 11 -282
11 l-230 0 0 -565z m510 425 c150 -84 122 -303 -46 -351 -31 -8 -99 -14 -184
-14 l-135 0 -3 199 -2 198 162 -4 c151 -3 166 -5 208 -28z m33 -499 c70 -34
102 -87 102 -165 0 -83 -36 -145 -102 -178 -44 -21 -63 -23 -225 -26 l-178 -3
0 201 0 202 178 -4 c162 -3 181 -5 225 -27z"/>
<path d="M28360 3998 c0 -195 5 -382 11 -418 28 -177 141 -306 313 -355 81
-24 228 -16 309 14 107 41 193 129 241 245 20 48 21 72 24 459 l3 407 -70 0
-70 0 -3 -387 c-4 -441 -5 -444 -84 -532 -62 -69 -130 -94 -239 -89 -123 7
-206 63 -257 173 -23 49 -23 57 -26 443 l-3 392 -75 0 -74 0 0 -352z"/>
<path d="M30410 3785 l0 -565 70 0 70 0 0 565 0 565 -70 0 -70 0 0 -565z"/>
<path d="M30870 3785 l0 -565 65 0 66 0 -3 440 c-2 242 -1 440 2 439 3 0 145
-183 315 -406 171 -223 324 -421 341 -440 27 -28 38 -33 78 -33 l46 0 0 565 0
565 -65 0 -66 0 3 -435 c2 -239 1 -435 -2 -435 -3 0 -155 196 -338 435 l-334
435 -54 0 -54 0 0 -565z"/>
<path d="M32070 3785 l0 -565 345 0 345 0 0 60 0 60 -270 0 -270 0 0 200 0
200 220 0 220 0 0 55 0 55 -220 0 -220 0 0 195 0 195 270 0 270 0 0 55 0 55
-345 0 -345 0 0 -565z"/>
<path d="M14270 1800 l0 -570 350 0 350 0 0 60 0 60 -275 0 -275 0 0 200 0
200 220 0 220 0 0 55 0 55 -220 0 -220 0 0 195 0 195 275 0 275 0 0 60 0 60
-350 0 -350 0 0 -570z"/>
<path d="M15080 2305 l0 -65 185 0 185 0 0 -505 0 -505 75 0 75 0 0 505 0 505
185 0 186 0 -3 63 -3 62 -442 3 -443 2 0 -65z"/>
<path d="M16440 1800 l0 -572 273 4 c222 4 282 8 327 22 231 74 365 253 377
507 9 179 -35 321 -136 431 -65 71 -125 110 -226 144 -77 26 -89 27 -347 32
l-268 4 0 -572z m524 435 c160 -34 266 -151 297 -331 14 -80 7 -209 -15 -281
-20 -65 -79 -152 -129 -192 -79 -62 -132 -74 -339 -79 l-188 -4 0 451 0 451
153 0 c94 0 178 -6 221 -15z"/>
<path d="M17591 2186 c4 -196 9 -216 55 -216 40 0 47 32 52 223 l4 177 -57 0
-57 0 3 -184z"/>
<path d="M17970 1800 l0 -570 350 0 350 0 0 60 0 60 -275 0 -275 0 0 200 0
200 220 0 220 0 0 55 0 55 -220 0 -220 0 0 195 0 195 275 0 276 0 -3 58 -3 57
-347 3 -348 2 0 -570z"/>
<path d="M18890 1800 l0 -570 65 0 65 0 2 442 3 443 329 -428 c180 -235 338
-434 349 -442 12 -8 41 -15 64 -15 l43 0 0 570 0 570 -65 0 -65 0 -2 -441 -3
-441 -334 435 c-201 263 -342 438 -355 441 -12 3 -38 6 -58 6 l-38 0 0 -570z"/>
<path d="M19980 2305 l0 -65 185 0 185 0 0 -505 0 -505 75 0 75 0 0 505 0 505
180 0 180 0 0 65 0 65 -440 0 -440 0 0 -65z"/>
<path d="M21050 1800 l0 -570 75 0 75 0 0 240 0 240 73 0 c49 0 80 -5 95 -15
12 -9 92 -112 178 -231 86 -118 165 -219 175 -225 11 -5 51 -9 89 -7 l71 3
-162 220 c-89 121 -173 232 -187 247 -29 32 -30 29 23 47 58 19 139 76 170
121 54 79 70 201 38 295 -22 67 -93 136 -165 163 -78 29 -195 42 -385 42
l-163 0 0 -570z m440 434 c132 -39 187 -182 119 -304 -46 -81 -116 -109 -286
-117 l-123 -6 0 222 0 221 118 0 c80 0 136 -5 172 -16z"/>
<path d="M22060 1800 l0 -570 345 0 345 0 0 60 0 60 -270 0 -270 0 0 200 0
200 220 0 220 0 0 55 0 55 -220 0 -220 0 0 195 0 195 270 0 270 0 0 60 0 60
-345 0 -345 0 0 -570z"/>
<path d="M23000 1800 l0 -570 70 0 70 0 2 213 3 212 160 6 c130 5 170 10 216
28 160 61 237 181 227 350 -6 98 -36 167 -97 224 -88 82 -200 107 -488 107
l-163 0 0 -570z m485 419 c74 -38 108 -92 113 -180 5 -86 -15 -145 -65 -194
-53 -51 -113 -67 -261 -69 l-127 -1 -3 239 -2 238 148 -3 c135 -4 152 -6 197
-30z"/>
<path d="M23970 1800 l0 -570 75 0 75 0 0 240 0 240 73 0 c49 0 80 -5 95 -15
12 -9 92 -112 178 -231 86 -118 165 -219 175 -225 11 -5 51 -9 90 -7 l70 3
-162 220 c-89 121 -172 231 -185 246 -28 29 -30 39 -8 39 33 0 130 55 170 97
114 117 113 331 -3 432 -86 77 -203 101 -480 101 l-163 0 0 -570z m440 434
c132 -39 187 -182 119 -304 -46 -81 -116 -109 -286 -117 l-123 -6 0 222 0 221
118 0 c80 0 136 -5 172 -16z"/>
<path d="M24980 1800 l0 -570 345 0 345 0 0 60 0 60 -270 0 -270 0 0 200 0
200 220 0 220 0 0 55 0 55 -220 0 -220 0 0 195 0 195 270 0 270 0 0 60 0 60
-345 0 -345 0 0 -570z"/>
<path d="M25900 1800 l0 -570 65 0 65 0 2 442 3 442 327 -426 c181 -235 338
-434 350 -442 12 -9 42 -16 65 -16 l43 0 0 570 0 570 -65 0 -65 0 -2 -441 -3
-442 -333 434 c-183 239 -341 437 -350 441 -9 4 -36 7 -59 7 l-43 1 0 -570z"/>
<path d="M27100 1800 l0 -570 350 0 350 0 0 60 0 60 -275 0 -275 0 0 200 0
200 225 0 225 0 0 55 0 55 -225 0 -225 0 2 193 3 192 273 3 272 2 0 60 0 60
-350 0 -350 0 0 -570z"/>
<path d="M28022 1958 c3 -406 3 -414 26 -471 64 -158 202 -254 382 -264 231
-14 393 91 463 300 19 58 21 90 25 455 l4 392 -76 0 -75 0 -3 -392 c-4 -453
-4 -454 -92 -544 -39 -40 -64 -56 -105 -68 -124 -36 -236 -12 -316 67 -88 89
-89 90 -93 545 l-3 392 -70 0 -70 0 3 -412z"/>
<path d="M29200 1801 l0 -571 75 0 75 0 0 240 0 240 69 0 c38 0 80 -4 94 -9
14 -6 87 -97 187 -234 99 -137 171 -228 184 -231 12 -3 51 -6 88 -6 l68 0
-171 233 c-94 127 -180 240 -191 249 -19 17 -19 18 -2 24 116 40 190 98 231
182 24 49 28 69 27 137 -1 157 -73 245 -239 292 -33 10 -126 16 -272 20 l-223
6 0 -572z m430 438 c104 -23 160 -93 160 -196 -1 -101 -41 -163 -135 -204 -42
-19 -69 -22 -175 -23 l-125 -1 -3 218 -2 217 117 0 c65 0 138 -5 163 -11z"/>
<path d="M30240 1800 l0 -570 75 0 75 0 0 570 0 570 -75 0 -75 0 0 -570z"/>
<path d="M31015 2338 c-7 -18 -110 -275 -228 -570 l-215 -538 63 0 c45 0 68 5
83 18 11 9 40 71 65 137 25 66 49 128 52 138 7 16 27 17 268 15 l261 -3 53
-140 c30 -77 61 -146 70 -152 23 -18 147 -18 140 0 -3 6 -105 263 -228 570
l-223 557 -73 0 c-74 0 -74 0 -88 -32z m228 -493 l74 -190 -210 -3 c-115 -1
-212 0 -214 2 -3 3 35 110 85 238 49 128 95 251 102 273 7 22 15 44 18 49 3 5
20 -33 38 -85 19 -52 67 -179 107 -284z"/>
<path d="M31560 2305 l0 -65 185 0 185 0 0 -505 0 -505 75 0 75 0 0 505 0 505
185 0 185 0 0 65 0 65 -445 0 -445 0 0 -65z"/>
</g>
</svg>
